<mxfile host="app.diagrams.net" modified="2023-09-29T08:59:52.284Z" agent="Mozilla/5.0 (Windows NT 10.0; Win64; x64) AppleWebKit/537.36 (KHTML, like Gecko) Chrome/92.0.4515.131 Safari/537.36 SLBrowser/8.0.1.4031 SLBChan/30" etag="aNq4CDNJyfhkKas6Vny2" version="21.7.5" type="github">
  <diagram name="第 1 页" id="wUAEAIxkWxok8icOV6td">
    <mxGraphModel dx="552" dy="449" grid="1" gridSize="10" guides="1" tooltips="1" connect="1" arrows="1" fold="1" page="1" pageScale="1" pageWidth="4681" pageHeight="3300" math="0" shadow="0">
      <root>
        <mxCell id="0" />
        <mxCell id="1" parent="0" />
        <mxCell id="99CrWy1h5ujyUwhnn91z-1" value="DruidDataSource" style="rounded=0;whiteSpace=wrap;html=1;" vertex="1" parent="1">
          <mxGeometry x="151" y="50" width="170" height="40" as="geometry" />
        </mxCell>
        <mxCell id="99CrWy1h5ujyUwhnn91z-2" value="getConnection" style="whiteSpace=wrap;html=1;" vertex="1" parent="1">
          <mxGeometry x="171" y="120" width="130" height="30" as="geometry" />
        </mxCell>
        <mxCell id="99CrWy1h5ujyUwhnn91z-3" value="使用的是DataSourc&lt;br&gt;的获取连接方法" style="text;html=1;align=center;verticalAlign=middle;resizable=0;points=[];autosize=1;strokeColor=none;fillColor=none;" vertex="1" parent="1">
          <mxGeometry x="16" y="117" width="130" height="40" as="geometry" />
        </mxCell>
        <mxCell id="99CrWy1h5ujyUwhnn91z-5" value="init" style="whiteSpace=wrap;html=1;" vertex="1" parent="1">
          <mxGeometry x="188" y="223" width="100" height="30" as="geometry" />
        </mxCell>
        <mxCell id="99CrWy1h5ujyUwhnn91z-6" value="初始化连接&lt;br&gt;只有第一次才执行" style="text;html=1;align=center;verticalAlign=middle;resizable=0;points=[];autosize=1;strokeColor=none;fillColor=none;" vertex="1" parent="1">
          <mxGeometry x="21" y="218" width="120" height="40" as="geometry" />
        </mxCell>
        <mxCell id="99CrWy1h5ujyUwhnn91z-7" value="传入最大等待时间" style="text;html=1;align=center;verticalAlign=middle;resizable=0;points=[];autosize=1;strokeColor=none;fillColor=none;" vertex="1" parent="1">
          <mxGeometry x="21" y="175" width="120" height="30" as="geometry" />
        </mxCell>
        <mxCell id="99CrWy1h5ujyUwhnn91z-8" value="getConnection(waitTime)" style="whiteSpace=wrap;html=1;" vertex="1" parent="1">
          <mxGeometry x="156" y="172" width="160" height="30" as="geometry" />
        </mxCell>
        <mxCell id="99CrWy1h5ujyUwhnn91z-9" value="加载的是 DruidDriver对象" style="text;html=1;align=center;verticalAlign=middle;resizable=0;points=[];autosize=1;strokeColor=none;fillColor=none;" vertex="1" parent="1">
          <mxGeometry x="16" y="280" width="160" height="30" as="geometry" />
        </mxCell>
      </root>
    </mxGraphModel>
  </diagram>
</mxfile>
